<svg width="58" height="44" viewBox="0 0 58 44" fill="none" xmlns="http://www.w3.org/2000/svg">
<path d="M4.20219 43.6724H13.361V21.4293L0.276855 11.6167V39.7478C0.277583 41.915 2.03496 43.6724 4.20219 43.6724Z" fill="#4285F4"/>
<path d="M44.7623 43.6721H53.9219C56.0898 43.6721 57.8472 41.9147 57.8472 39.7468V11.6157L44.7623 21.429V43.6721Z" fill="#34A853"/>
<path d="M44.7623 4.42192V21.4293L57.8465 11.6167V6.38458C57.8465 3.13337 55.2104 0.497314 51.9585 0.497314C50.6845 0.497314 49.4455 0.910814 48.4263 1.6752L44.7623 4.42192Z" fill="#FBBC04"/>
<path d="M13.3618 21.429V4.42163L29.0617 16.1962L44.7616 4.4209V21.429L29.0617 33.2035L13.3618 21.429Z" fill="#EA4335"/>
<path d="M0.278137 6.38367V11.6157L13.3623 21.4291V4.42173L9.69835 1.67429C7.09724 -0.276723 3.40705 0.250342 1.45603 2.85146C0.690909 3.87064 0.278137 5.11041 0.278137 6.38367Z" fill="#C5221F"/>
</svg>
