<svg width="55" height="48" viewBox="0 0 55 48" fill="none" xmlns="http://www.w3.org/2000/svg">
<path d="M49.0333 0.375778C43.726 3.47558 28.8376 16.2036 27.0059 17.7535C25.2211 16.2036 10.2857 3.47558 4.97847 0.375778C3.05284 -0.751423 0 0.798479 0 3.14682V44.2897C0 47.4364 4.03914 48.1879 5.82388 47.2016C9.67515 44.9942 23.1076 33.1586 21.7456 31.3738C21.5577 31.092 21.3699 30.8572 21.0881 30.5754C19.5382 29.1194 7.37378 37.5734 7.37378 37.5734V10.8024C7.37378 10.8024 19.5382 22.5441 24.7984 24.5167C25.2211 24.6576 25.8787 24.7985 26.5832 24.7985H27.4286C28.1331 24.7515 28.7906 24.6576 29.2133 24.5167C34.5206 22.5441 46.6849 10.8024 46.6849 10.8024V37.5734C46.6849 37.5734 34.5206 29.1664 33.0176 30.6224C32.7358 30.9042 32.501 31.139 32.3601 31.4208C30.998 33.1586 44.4305 45.0411 48.2818 47.2486C50.0196 48.2349 54.1057 47.4834 54.1057 44.3366V3.19378C54.0587 0.798479 51.0059 -0.751423 49.0333 0.375778Z" fill="#95CEBC"/>
</svg>
