<svg width="58" height="55" viewBox="0 0 58 55" fill="none" xmlns="http://www.w3.org/2000/svg">
<g filter="url(#filter0_d_15_1062)">
<path d="M48.5714 3.10327H21.7749C20.5744 3.10327 19.5865 4.0866 19.5865 5.28162V7.75766L34.6899 12.4125L50.7598 7.75766V5.28162C50.7598 4.0866 49.7719 3.10327 48.5714 3.10327Z" fill="#0364B8"/>
<path d="M53.3315 27.0044C53.5598 26.2901 53.7421 25.562 53.877 24.8245C53.8773 24.4555 53.6791 24.1136 53.3581 23.9292L53.3379 23.9183L53.3315 23.9154L36.4386 14.3363C36.3658 14.2893 36.2903 14.2462 36.2128 14.2074C35.5587 13.8846 34.7892 13.8846 34.1351 14.2074C34.0575 14.2462 33.982 14.2891 33.909 14.3363L17.0163 23.9154L17.01 23.9183L16.9896 23.9292C16.6688 24.1136 16.4706 24.4555 16.4708 24.8245C16.6057 25.562 16.788 26.2901 17.0163 27.0044L34.9284 40.0447L53.3315 27.0044Z" fill="#0A2767"/>
<path d="M41.4078 7.75757H30.4971L27.3469 12.4124L30.4971 17.0668L41.4078 26.3758H50.7597V17.0668L41.4078 7.75757Z" fill="#28A8EA"/>
<path fill-rule="evenodd" clip-rule="evenodd" d="M19.5867 7.75757H30.4974V17.0666H19.5867V7.75757Z" fill="#0078D4"/>
<path fill-rule="evenodd" clip-rule="evenodd" d="M41.408 7.75757H50.7598V17.0666H41.408V7.75757Z" fill="#50D9FF"/>
<path d="M41.4081 26.3759L30.4974 17.0669H19.5867V26.3759L30.4974 35.6851L47.3808 38.4281L41.4081 26.3759Z" fill="#0364B8"/>
<path fill-rule="evenodd" clip-rule="evenodd" d="M30.4973 17.0669H41.408V26.3759H30.4973V17.0669Z" fill="#0078D4"/>
<path fill-rule="evenodd" clip-rule="evenodd" d="M19.5867 26.376H30.4974V35.685H19.5867V26.376Z" fill="#064A8C"/>
<path fill-rule="evenodd" clip-rule="evenodd" d="M41.408 26.376H50.7598V35.685H41.408V26.376Z" fill="#0078D4"/>
<path d="M35.471 39.1261L17.088 25.7832L17.858 24.4349C17.858 24.4349 34.6058 33.9301 34.8613 34.073C35.0731 34.1576 35.3111 34.1508 35.5177 34.0542C35.756 33.9209 52.5568 24.3884 52.5568 24.3884L53.33 25.7367L35.471 39.1261Z" fill="#0A2767" fill-opacity="0.498039"/>
<path d="M53.3581 25.7195L53.3379 25.732L53.3332 25.7351L36.4405 35.3143C35.7589 35.7517 34.8955 35.8051 34.1648 35.4553L40.0486 43.3075L52.9139 46.0957V46.102C53.5204 45.6653 53.8805 44.9636 53.8803 44.2184V24.8245C53.8805 25.1932 53.6821 25.5354 53.3613 25.7195H53.3581Z" fill="#1490DF"/>
<path d="M53.877 44.2183V43.0734L38.3168 34.2483L36.4385 35.3126C35.7572 35.75 34.8938 35.8037 34.1631 35.4537L40.0469 43.3061L52.9122 46.094V46.1004C53.5187 45.6634 53.8786 44.962 53.8786 44.2168L53.877 44.2183Z" fill="black" fill-opacity="0.047059"/>
<path d="M53.7992 44.8125L36.7426 35.1404L36.4385 35.3126C35.7572 35.75 34.8938 35.8037 34.1631 35.4536L40.0469 43.306L52.9122 46.094V46.1003C53.3487 45.7852 53.6627 45.3296 53.8005 44.8109L53.7992 44.8125Z" fill="black" fill-opacity="0.098039"/>
<path d="M17.0145 25.7399V25.7243H16.9991L16.9522 25.6934C16.6497 25.5081 16.4661 25.1779 16.469 24.8245V44.2215C16.469 45.4965 17.5231 46.5457 18.8041 46.5457H51.5392C51.7338 46.5436 51.9276 46.5177 52.1158 46.468C52.2135 46.4511 52.3081 46.4197 52.3965 46.3751C52.4296 46.3717 52.4614 46.3611 52.4899 46.3439C52.6173 46.292 52.738 46.2243 52.8484 46.1421L52.9107 46.0957L17.0145 25.7399Z" fill="#28A8EA"/>
<path d="M32.0557 38.2714V12.9305C32.0523 11.7971 31.1166 10.8657 29.978 10.8623H19.6348V22.4302L17.0145 23.9166L17.0084 23.9198L16.9882 23.9306C16.6672 24.1152 16.469 24.4571 16.469 24.8257V40.3457V40.3393H29.978C31.1166 40.3362 32.0523 39.4045 32.0557 38.2714Z" fill="black" fill-opacity="0.098039"/>
<path d="M30.4972 39.8226V14.4818C30.4938 13.3486 29.5578 12.4172 28.4194 12.4136H19.6348V22.4301L17.0145 23.9165L17.0084 23.9197L16.9882 23.9305C16.6672 24.1151 16.469 24.457 16.469 24.8256V41.8972V41.8908H28.4194C29.5578 41.8875 30.4938 40.956 30.4972 39.8226ZM30.4972 36.7196V14.4818C30.4938 13.3486 29.5578 12.4172 28.4194 12.4136H19.6348V22.4301L17.0145 23.9165L17.0084 23.9197L16.9882 23.9305C16.6672 24.1151 16.469 24.457 16.469 24.8256V38.7939V38.7878H28.4194C29.5578 38.7845 30.4938 37.853 30.4972 36.7196ZM28.9384 36.7196V14.4818C28.935 13.3486 27.9993 12.4172 26.8609 12.4136H19.6348V22.4301L17.0145 23.9165L17.0084 23.9197L16.9882 23.9305C16.6672 24.1151 16.469 24.457 16.469 24.8256V38.7939V38.7878H26.8609C27.9993 38.7845 28.935 37.853 28.9384 36.7196Z" fill="black" fill-opacity="0.2"/>
<path d="M6.07775 12.4124H26.8593C27.9991 12.4124 28.937 13.3458 28.937 14.4803V35.1668C28.937 36.3013 27.9991 37.235 26.8593 37.235H6.07775C4.93798 37.235 4 36.3013 4 35.1668V14.4803C4 13.3458 4.93798 12.4124 6.07775 12.4124Z" fill="#0078D4"/>
<path d="M10.0273 20.896C10.5794 19.7249 11.4709 18.7447 12.5866 18.0816C13.8229 17.377 15.2307 17.0261 16.6548 17.0669C17.9737 17.038 19.2756 17.3709 20.4174 18.0288C21.4918 18.6657 22.3573 19.6001 22.908 20.7177C23.5079 21.949 23.8072 23.3041 23.7809 24.6724C23.8101 26.1026 23.502 27.5199 22.8817 28.8104C22.3187 29.9675 21.4272 30.9355 20.3176 31.5939C19.1314 32.2725 17.781 32.6144 16.4131 32.5822C15.0657 32.614 13.735 32.2775 12.5664 31.6092C11.4836 30.9712 10.6077 30.0359 10.0445 28.9158C9.44073 27.7021 9.13805 26.3617 9.16231 25.0076C9.13555 23.5896 9.43189 22.184 10.0289 20.896H10.0273ZM12.7548 27.5023C13.0494 28.2428 13.5488 28.8854 14.1952 29.3548C14.853 29.8134 15.6415 30.0499 16.4442 30.0298C17.2994 30.0635 18.1426 29.8195 18.8461 29.3347C19.4846 28.8653 19.9709 28.2194 20.2444 27.4775C20.5518 26.6506 20.7033 25.7742 20.6917 24.8927C20.7012 24.0035 20.5588 23.1188 20.2709 22.277C20.017 21.5191 19.5481 20.8501 18.921 20.3516C18.236 19.8424 17.3951 19.5838 16.541 19.6192C15.7209 19.598 14.9146 19.8359 14.2388 20.2988C13.5803 20.7698 13.0698 21.4178 12.7673 22.1668C12.0985 23.8818 12.0946 25.7848 12.7564 27.5023H12.7548Z" fill="white"/>
</g>
<defs>
<filter id="filter0_d_15_1062" x="0" y="3.10327" width="57.8802" height="51.4424" filterUnits="userSpaceOnUse" color-interpolation-filters="sRGB">
<feFlood flood-opacity="0" result="BackgroundImageFix"/>
<feColorMatrix in="SourceAlpha" type="matrix" values="0 0 0 0 0 0 0 0 0 0 0 0 0 0 0 0 0 0 127 0" result="hardAlpha"/>
<feOffset dy="4"/>
<feGaussianBlur stdDeviation="2"/>
<feComposite in2="hardAlpha" operator="out"/>
<feColorMatrix type="matrix" values="0 0 0 0 0 0 0 0 0 0 0 0 0 0 0 0 0 0 0.25 0"/>
<feBlend mode="normal" in2="BackgroundImageFix" result="effect1_dropShadow_15_1062"/>
<feBlend mode="normal" in="SourceGraphic" in2="effect1_dropShadow_15_1062" result="shape"/>
</filter>
</defs>
</svg>
